<svg width="62" height="62" viewBox="0 0 62 62" fill="none" xmlns="http://www.w3.org/2000/svg">
<rect width="62" height="62" rx="31" fill="#0E493F"/>
<path d="M38.3811 19.1905H23.6192C19.1907 19.1905 16.2383 21.4048 16.2383 26.5714V36.9048C16.2383 42.0714 19.1907 44.2857 23.6192 44.2857H38.3811C42.8097 44.2857 45.7621 42.0714 45.7621 36.9048V26.5714C45.7621 21.4048 42.8097 19.1905 38.3811 19.1905ZM39.0749 28.1805L34.4545 31.871C33.4802 32.6533 32.2402 33.0372 31.0002 33.0372C29.7602 33.0372 28.5054 32.6533 27.5459 31.871L22.9254 28.1805C22.453 27.7967 22.3792 27.0881 22.7483 26.6157C23.1321 26.1433 23.8259 26.0548 24.2983 26.4386L28.9188 30.1291C30.0407 31.0295 31.9449 31.0295 33.0669 30.1291L37.6873 26.4386C38.1597 26.0548 38.8683 26.1286 39.2373 26.6157C39.6211 27.0881 39.5473 27.7967 39.0749 28.1805Z" fill="white"/>
</svg>
