<svg width="62" height="62" viewBox="0 0 62 62" fill="none" xmlns="http://www.w3.org/2000/svg">
<rect width="62" height="62" rx="31" fill="#0E493F"/>
<path d="M42.4567 26.8811C40.9721 20.5601 35.2745 17.7143 30.2695 17.7143C30.2695 17.7143 30.2695 17.7143 30.2554 17.7143C25.2646 17.7143 19.5528 20.5464 18.0683 26.8674C16.4141 33.9272 20.8818 39.9061 24.9253 43.6686C26.4239 45.0641 28.3467 45.7619 30.2695 45.7619C32.1923 45.7619 34.1151 45.0641 35.5996 43.6686C39.6432 39.9061 44.1108 33.9409 42.4567 26.8811ZM30.2695 33.7356C27.8095 33.7356 25.816 31.8065 25.816 29.4259C25.816 27.0453 27.8095 25.1161 30.2695 25.1161C32.7296 25.1161 34.7231 27.0453 34.7231 29.4259C34.7231 31.8065 32.7296 33.7356 30.2695 33.7356Z" fill="white"/>
</svg>
