<svg width="30" height="30" viewBox="0 0 30 30" fill="none" xmlns="http://www.w3.org/2000/svg">
<path d="M19.1699 12.4035C18.8283 12.4035 18.5449 12.1202 18.5449 11.7785V10.6285C18.5449 9.7535 18.1699 8.9035 17.5199 8.31184C16.8616 7.71184 16.0116 7.43684 15.1116 7.52017C13.6116 7.66184 12.2949 9.19517 12.2949 10.7952V11.6035C12.2949 11.9452 12.0116 12.2285 11.6699 12.2285C11.3283 12.2285 11.0449 11.9452 11.0449 11.6035V10.7868C11.0449 8.54517 12.8533 6.4785 14.9949 6.27017C16.2449 6.1535 17.4449 6.54517 18.3616 7.38684C19.2699 8.21184 19.7949 9.39517 19.7949 10.6285V11.7785C19.7949 12.1202 19.5116 12.4035 19.1699 12.4035Z" fill="#262626"/>
<path d="M17.9198 24.1702H12.9198C9.06977 24.1702 8.3531 22.3785 8.16977 20.6368L7.54477 15.6452C7.4531 14.7452 7.41977 13.4535 8.29477 12.4868C9.04477 11.6535 10.2864 11.2535 12.0864 11.2535H18.7531C20.5614 11.2535 21.8031 11.6618 22.5448 12.4868C23.4114 13.4535 23.3864 14.7452 23.2948 15.6285L22.6698 20.6368C22.4864 22.3785 21.7698 24.1702 17.9198 24.1702ZM12.0864 12.5035C10.6781 12.5035 9.71144 12.7785 9.21977 13.3285C8.81144 13.7785 8.6781 14.4702 8.78644 15.5035L9.41144 20.4952C9.5531 21.8285 9.91977 22.9285 12.9198 22.9285H17.9198C20.9198 22.9285 21.2864 21.8368 21.4281 20.5118L22.0531 15.5035C22.1614 14.4868 22.0281 13.7952 21.6198 13.3368C21.1281 12.7785 20.1614 12.5035 18.7531 12.5035H12.0864Z" fill="#262626"/>
</svg>
